<svg id="svg" version="1.1" xmlns="http://www.w3.org/2000/svg" xmlns:xlink="http://www.w3.org/1999/xlink" width="400" height="400" viewBox="0, 0, 400,400"><g id="svgg"><path id="path0" d="M155.200 59.533 C 155.200 64.466,152.657 75.705,150.027 82.400 C 142.053 102.694,126.192 116.490,106.400 120.347 C 105.190 120.583,103.255 120.979,102.100 121.228 L 100.000 121.680 100.000 158.113 C 100.000 180.397,100.159 195.954,100.410 198.173 C 101.132 204.553,101.590 207.272,102.874 212.800 C 103.946 217.415,106.293 224.320,108.372 228.968 C 110.620 233.998,111.288 235.273,114.671 241.000 C 116.118 243.449,117.129 244.905,121.325 250.584 C 124.472 254.843,133.852 264.210,138.363 267.600 C 139.095 268.150,140.671 269.333,141.865 270.228 C 148.642 275.309,159.765 280.929,168.800 283.835 C 173.595 285.377,174.430 285.603,179.700 286.780 C 191.797 289.480,208.203 289.480,220.300 286.780 C 225.565 285.604,226.396 285.380,231.200 283.836 C 237.410 281.840,244.497 278.716,249.141 275.926 C 250.538 275.087,251.761 274.400,251.859 274.400 C 252.111 274.400,257.996 270.435,259.229 269.435 C 259.794 268.976,260.867 268.150,261.612 267.600 C 264.755 265.281,273.347 257.040,276.222 253.586 C 281.018 247.826,284.388 242.904,287.713 236.800 C 288.373 235.590,289.136 234.330,289.409 234.000 C 289.682 233.670,290.041 232.950,290.208 232.400 C 290.374 231.850,290.922 230.497,291.424 229.393 C 294.175 223.353,296.661 215.596,297.958 209.000 C 299.861 199.333,300.000 196.251,300.000 163.881 L 300.000 133.215 299.100 133.029 C 298.605 132.927,295.680 132.743,292.600 132.619 C 286.493 132.374,280.890 131.906,275.600 131.198 C 273.730 130.948,270.940 130.577,269.400 130.374 C 267.860 130.171,265.700 129.839,264.600 129.636 C 263.500 129.434,261.520 129.093,260.200 128.878 C 258.880 128.664,256.540 128.196,255.000 127.840 C 253.460 127.483,251.300 126.997,250.200 126.758 C 249.100 126.520,247.660 126.175,247.000 125.990 C 246.340 125.805,245.080 125.475,244.200 125.256 C 241.018 124.464,230.400 121.167,228.600 120.412 C 228.160 120.227,226.270 119.491,224.400 118.777 C 218.632 116.572,209.147 112.078,204.859 109.517 C 203.462 108.683,202.242 108.000,202.149 108.000 C 201.718 108.000,191.056 100.645,188.200 98.379 C 174.003 87.110,163.728 74.346,157.225 59.900 C 155.731 56.581,155.200 56.485,155.200 59.533 M160.729 145.879 C 165.651 148.693,166.400 150.669,166.400 160.849 C 166.400 170.058,166.167 171.243,163.842 173.884 C 158.521 179.930,148.782 178.366,145.317 170.909 C 144.090 168.268,144.271 153.218,145.558 150.802 C 148.599 145.095,155.461 142.869,160.729 145.879 M249.398 145.713 C 251.460 146.749,253.239 148.544,254.442 150.802 C 255.906 153.550,255.914 168.358,254.452 171.304 C 250.333 179.608,238.764 179.730,234.564 171.513 C 233.198 168.840,233.077 153.902,234.399 151.096 C 237.103 145.355,243.861 142.930,249.398 145.713 M46.200 271.112 C 45.980 271.310,45.182 271.716,44.427 272.015 C 42.536 272.762,39.823 275.747,38.727 278.286 C 37.869 280.273,35.600 281.517,35.600 280.000 C 35.600 279.778,34.541 279.600,33.224 279.600 C 31.917 279.600,30.736 279.420,30.600 279.200 C 30.464 278.980,29.373 278.800,28.176 278.800 C 26.979 278.800,26.000 278.620,26.000 278.400 C 26.000 278.178,24.933 278.000,23.600 278.000 C 22.267 278.000,21.200 277.822,21.200 277.600 C 21.200 277.378,20.133 277.200,18.800 277.200 C 17.467 277.200,16.400 277.022,16.400 276.800 C 16.400 276.578,15.333 276.400,14.000 276.400 C 12.667 276.400,11.600 276.222,11.600 276.000 C 11.600 275.478,6.684 275.476,6.162 275.998 C 5.944 276.216,5.291 276.435,4.711 276.483 C 4.132 276.530,3.745 276.712,3.852 276.885 C 3.960 277.058,3.851 277.200,3.610 277.200 C 1.228 277.200,-0.887 283.609,0.142 287.710 C 0.404 288.754,3.748 292.400,4.444 292.400 C 4.682 292.400,5.354 292.721,5.938 293.114 C 6.522 293.507,7.540 294.068,8.200 294.361 C 8.860 294.654,9.713 295.052,10.095 295.247 C 10.477 295.441,11.056 295.600,11.382 295.600 C 11.709 295.600,12.617 295.960,13.400 296.400 C 14.183 296.840,15.279 297.200,15.836 297.200 C 16.392 297.200,16.760 297.342,16.652 297.515 C 16.545 297.688,16.932 297.870,17.511 297.917 C 18.091 297.965,18.744 298.184,18.962 298.402 C 19.181 298.621,19.774 298.800,20.280 298.800 C 20.786 298.800,21.200 298.980,21.200 299.200 C 21.200 299.420,21.560 299.600,22.000 299.600 C 22.440 299.600,22.800 299.780,22.800 300.000 C 22.800 300.220,23.252 300.400,23.805 300.400 C 24.358 300.400,25.168 300.580,25.605 300.800 C 26.042 301.020,26.758 301.380,27.195 301.600 C 27.632 301.820,28.264 302.000,28.600 302.000 C 28.936 302.000,29.568 302.180,30.005 302.400 C 30.442 302.620,31.158 302.980,31.595 303.200 C 32.032 303.420,32.664 303.600,33.000 303.600 C 33.336 303.600,33.968 303.780,34.405 304.000 C 34.842 304.220,35.558 304.580,35.995 304.800 C 36.432 305.020,37.162 305.200,37.618 305.200 C 38.074 305.200,38.360 305.342,38.252 305.515 C 38.145 305.688,38.532 305.870,39.111 305.917 C 39.691 305.965,40.344 306.184,40.562 306.402 C 40.781 306.621,41.374 306.800,41.880 306.800 C 42.386 306.800,42.800 306.980,42.800 307.200 C 42.800 307.420,43.160 307.600,43.600 307.600 C 44.040 307.600,44.400 307.780,44.400 308.000 C 44.400 308.220,44.929 308.400,45.576 308.400 C 46.223 308.400,46.864 308.580,47.000 308.800 C 47.136 309.020,47.687 309.200,48.224 309.200 C 48.761 309.200,49.200 309.380,49.200 309.600 C 49.200 309.820,49.562 310.000,50.005 310.000 C 50.448 310.000,51.168 310.180,51.605 310.400 C 52.042 310.620,52.715 310.935,53.100 311.100 C 53.485 311.265,66.670 311.310,82.400 311.200 L 111.000 311.000 111.119 301.400 C 111.247 291.046,111.156 290.358,109.089 286.041 C 107.129 281.946,104.346 279.501,99.000 277.180 C 98.150 276.811,94.129 276.578,85.200 276.381 C 78.270 276.228,71.970 275.915,71.200 275.685 C 70.430 275.455,68.855 275.072,67.700 274.833 C 66.545 274.595,64.655 274.204,63.500 273.965 C 62.345 273.726,60.749 273.366,59.954 273.165 C 59.158 272.964,58.055 272.800,57.503 272.800 C 56.950 272.800,56.290 272.550,56.036 272.244 C 55.207 271.245,47.089 270.311,46.200 271.112 M346.800 271.200 C 346.470 271.413,345.817 271.591,345.349 271.594 C 344.881 271.597,344.293 271.847,344.043 272.149 C 343.792 272.450,342.825 272.805,341.894 272.936 C 340.962 273.067,339.390 273.360,338.400 273.588 C 337.410 273.816,335.700 274.177,334.600 274.391 C 333.500 274.604,331.430 275.068,330.000 275.420 C 328.068 275.896,324.163 276.137,314.800 276.360 C 305.915 276.571,301.846 276.813,301.000 277.180 C 297.614 278.651,296.195 279.497,294.638 280.977 C 292.854 282.671,290.400 286.030,290.400 286.777 C 290.400 287.016,290.238 287.523,290.039 287.905 C 288.956 289.989,288.768 292.188,288.881 301.400 L 289.000 311.000 317.600 311.200 C 333.330 311.310,346.371 311.265,346.580 311.100 C 346.789 310.935,347.464 310.800,348.080 310.800 C 348.696 310.800,349.200 310.620,349.200 310.400 C 349.200 310.180,349.555 310.000,349.988 310.000 C 350.421 310.000,351.417 309.640,352.200 309.200 C 352.983 308.760,353.891 308.400,354.218 308.400 C 354.544 308.400,355.168 308.220,355.605 308.000 C 356.042 307.780,356.758 307.420,357.195 307.200 C 357.632 306.980,358.352 306.800,358.795 306.800 C 359.238 306.800,359.600 306.620,359.600 306.400 C 359.600 306.180,359.962 306.000,360.405 306.000 C 360.848 306.000,361.523 305.841,361.905 305.647 C 362.287 305.452,363.140 305.071,363.800 304.800 C 364.460 304.529,365.313 304.148,365.695 303.953 C 366.077 303.759,366.664 303.600,367.000 303.600 C 367.336 303.600,367.968 303.420,368.405 303.200 C 368.842 302.980,369.558 302.620,369.995 302.400 C 370.432 302.180,371.152 302.000,371.595 302.000 C 372.038 302.000,372.400 301.820,372.400 301.600 C 372.400 301.380,372.839 301.200,373.376 301.200 C 373.913 301.200,374.464 301.020,374.600 300.800 C 374.736 300.580,375.377 300.400,376.024 300.400 C 376.671 300.400,377.200 300.220,377.200 300.000 C 377.200 299.780,377.549 299.600,377.976 299.600 C 378.403 299.600,378.864 299.420,379.000 299.200 C 379.136 298.980,379.687 298.800,380.224 298.800 C 380.761 298.800,381.200 298.620,381.200 298.400 C 381.200 298.180,381.562 298.000,382.005 298.000 C 382.448 298.000,383.123 297.841,383.505 297.647 C 383.887 297.452,384.740 297.071,385.400 296.800 C 386.060 296.529,386.913 296.148,387.295 295.953 C 387.677 295.759,388.442 295.600,388.995 295.600 C 389.548 295.600,390.000 295.420,390.000 295.200 C 390.000 294.980,390.265 294.800,390.588 294.800 C 391.153 294.800,393.050 293.841,394.957 292.591 C 395.456 292.264,396.013 292.133,396.196 292.299 C 396.379 292.464,396.399 292.375,396.241 292.100 C 396.082 291.825,396.130 291.600,396.346 291.600 C 396.562 291.600,397.472 290.851,398.369 289.936 L 400.000 288.273 400.000 284.962 C 400.000 280.785,398.345 277.200,396.416 277.200 C 396.161 277.200,396.040 277.058,396.148 276.885 C 396.255 276.712,395.868 276.530,395.289 276.483 C 394.709 276.435,394.056 276.216,393.838 275.998 C 393.316 275.476,388.400 275.478,388.400 276.000 C 388.400 276.222,387.333 276.400,386.000 276.400 C 384.667 276.400,383.600 276.578,383.600 276.800 C 383.600 277.022,382.533 277.200,381.200 277.200 C 379.867 277.200,378.800 277.378,378.800 277.600 C 378.800 277.822,377.733 278.000,376.400 278.000 C 375.067 278.000,374.000 278.178,374.000 278.400 C 374.000 278.620,373.111 278.800,372.024 278.800 C 370.937 278.800,369.936 278.980,369.800 279.200 C 369.664 279.420,368.393 279.600,366.976 279.600 C 365.525 279.600,364.400 279.775,364.400 280.000 C 364.400 280.220,363.905 280.399,363.300 280.397 C 362.223 280.394,361.200 279.090,361.200 277.720 C 361.200 277.434,361.020 277.200,360.800 277.200 C 360.580 277.200,360.400 276.992,360.400 276.738 C 360.400 276.484,359.958 275.696,359.417 274.987 C 358.877 274.279,358.517 273.587,358.617 273.449 C 358.718 273.312,358.696 273.274,358.568 273.365 C 358.440 273.456,357.178 272.916,355.762 272.165 C 353.074 270.739,348.308 270.226,346.800 271.200 " stroke="none" fill="#aa7a52" fill-rule="evenodd"></path><path id="path1" d="M101.400 234.055 C 90.839 234.361,88.033 234.918,81.200 238.066 C 78.156 239.468,72.621 243.075,71.230 244.562 C 70.690 245.141,69.820 245.600,69.267 245.600 C 68.387 245.600,64.400 249.050,64.400 249.811 C 64.400 249.941,63.871 250.711,63.223 251.523 C 62.576 252.336,61.528 253.990,60.894 255.200 C 60.259 256.410,59.550 257.760,59.317 258.200 C 59.084 258.640,58.671 259.540,58.400 260.200 C 58.129 260.860,57.748 261.713,57.553 262.095 C 57.359 262.477,57.200 263.141,57.200 263.571 C 57.200 264.001,57.039 264.452,56.842 264.574 C 56.509 264.780,56.312 265.729,55.753 269.823 C 55.476 271.856,55.949 272.290,59.058 272.851 C 62.910 273.547,64.509 273.879,70.800 275.292 C 71.790 275.514,78.090 275.817,84.800 275.966 C 95.062 276.193,97.318 276.350,99.000 276.954 C 107.218 279.908,111.200 285.904,111.200 295.327 L 111.200 300.000 116.800 300.000 L 122.400 300.000 122.400 350.000 L 122.400 400.000 200.000 400.000 L 277.600 400.000 277.600 350.000 L 277.600 300.000 283.200 300.000 L 288.800 300.000 288.800 295.327 C 288.800 288.270,290.901 283.361,295.361 279.995 C 299.992 276.500,302.516 276.000,315.520 276.000 C 323.202 276.000,326.508 275.847,328.600 275.394 C 334.293 274.163,339.453 273.101,341.337 272.773 C 342.402 272.588,343.527 272.226,343.837 271.969 C 344.484 271.433,344.611 268.178,344.000 267.800 C 343.780 267.664,343.600 266.843,343.600 265.976 C 343.600 265.109,343.420 264.400,343.200 264.400 C 342.980 264.400,342.800 264.038,342.800 263.595 C 342.800 263.152,342.641 262.477,342.447 262.095 C 342.252 261.713,341.918 260.950,341.703 260.400 C 341.489 259.850,340.901 258.590,340.397 257.600 C 339.893 256.610,339.283 255.396,339.040 254.903 C 338.798 254.410,338.465 254.005,338.300 254.003 C 338.135 254.001,338.000 253.801,338.000 253.558 C 338.000 253.314,337.460 252.433,336.800 251.600 C 336.140 250.767,335.600 249.964,335.600 249.817 C 335.600 249.669,335.060 249.094,334.400 248.539 C 333.740 247.983,333.200 247.296,333.200 247.010 C 333.200 246.275,331.362 245.163,330.618 245.448 C 330.232 245.596,329.408 245.158,328.459 244.301 C 323.359 239.693,315.759 236.059,308.199 234.612 C 304.851 233.972,289.719 233.697,289.206 234.268 C 289.042 234.451,288.369 235.590,287.711 236.800 C 284.407 242.875,281.022 247.822,276.222 253.586 C 273.347 257.040,264.755 265.281,261.612 267.600 C 260.867 268.150,259.794 268.976,259.229 269.435 C 257.996 270.435,252.111 274.400,251.859 274.400 C 251.761 274.400,250.538 275.087,249.141 275.926 C 242.661 279.819,232.010 284.051,223.900 285.954 C 219.988 286.872,218.532 287.170,216.000 287.568 C 210.017 288.510,206.242 288.801,200.000 288.801 C 188.723 288.801,179.846 287.388,168.800 283.835 C 159.765 280.929,148.642 275.309,141.865 270.228 C 140.671 269.333,139.095 268.150,138.363 267.600 C 133.852 264.210,124.472 254.843,121.325 250.584 C 116.073 243.477,115.152 242.072,112.291 236.800 C 110.560 233.612,111.194 233.771,101.400 234.055 M54.645 312.900 C 54.421 314.496,54.022 317.617,53.200 324.200 C 53.008 325.740,52.648 328.620,52.400 330.600 C 52.152 332.580,51.792 335.460,51.600 337.000 C 51.408 338.540,51.048 341.420,50.800 343.400 C 50.552 345.380,50.192 348.260,50.000 349.800 C 49.808 351.340,49.448 354.220,49.200 356.200 C 48.952 358.180,48.592 361.060,48.400 362.600 C 48.208 364.140,47.848 367.020,47.600 369.000 C 47.352 370.980,46.992 373.860,46.800 375.400 C 46.608 376.940,46.248 379.820,46.000 381.800 C 44.980 389.956,44.833 391.146,44.444 394.400 C 44.221 396.270,43.919 398.295,43.772 398.900 L 43.507 400.000 77.353 400.000 L 111.200 400.000 111.200 355.600 L 111.200 311.200 83.042 311.200 L 54.884 311.200 54.645 312.900 M288.800 355.600 L 288.800 400.000 322.647 400.000 L 356.493 400.000 356.228 398.900 C 356.081 398.295,355.779 396.270,355.556 394.400 C 355.167 391.146,355.020 389.956,354.000 381.800 C 353.752 379.820,353.392 376.940,353.200 375.400 C 353.008 373.860,352.648 370.980,352.400 369.000 C 352.152 367.020,351.792 364.140,351.600 362.600 C 351.408 361.060,351.048 358.180,350.800 356.200 C 350.552 354.220,350.192 351.340,350.000 349.800 C 349.808 348.260,349.448 345.380,349.200 343.400 C 348.952 341.420,348.592 338.540,348.400 337.000 C 348.208 335.460,347.848 332.580,347.600 330.600 C 347.352 328.620,346.992 325.740,346.800 324.200 C 345.978 317.617,345.579 314.496,345.355 312.900 L 345.116 311.200 316.958 311.200 L 288.800 311.200 288.800 355.600 " stroke="none" fill="#946bcb" fill-rule="evenodd"></path><path id="path2" d="M95.200 233.600 C 92.216 233.878,91.255 234.052,88.200 234.866 C 82.605 236.358,76.464 239.549,71.666 243.457 C 70.489 244.416,69.211 245.200,68.825 245.200 C 68.440 245.200,67.798 245.560,67.400 246.000 C 67.002 246.440,66.865 246.800,67.095 246.800 C 67.326 246.800,67.618 246.530,67.745 246.200 C 67.875 245.860,68.471 245.600,69.118 245.600 C 69.832 245.600,70.624 245.211,71.230 244.562 C 77.374 237.989,89.174 234.000,102.476 234.000 C 107.029 234.000,110.049 233.844,110.200 233.600 C 110.481 233.145,100.087 233.145,95.200 233.600 M290.000 233.538 C 290.000 233.871,292.099 234.000,297.500 234.000 C 310.997 234.000,322.504 237.898,328.805 244.605 C 329.728 245.588,330.800 245.933,330.800 245.247 C 330.800 245.052,330.485 244.787,330.100 244.657 C 329.715 244.528,328.183 243.458,326.696 242.281 C 318.887 236.101,311.294 233.722,298.100 233.322 C 292.103 233.140,290.000 233.197,290.000 233.538 M59.800 273.200 C 60.240 273.389,60.870 273.544,61.200 273.544 C 61.578 273.544,61.504 273.417,61.000 273.200 C 60.560 273.011,59.930 272.856,59.600 272.856 C 59.222 272.856,59.296 272.983,59.800 273.200 M339.000 273.200 C 338.496 273.417,338.422 273.544,338.800 273.544 C 339.130 273.544,339.760 273.389,340.200 273.200 C 340.704 272.983,340.778 272.856,340.400 272.856 C 340.070 272.856,339.440 273.011,339.000 273.200 M63.800 274.000 C 64.240 274.189,64.870 274.344,65.200 274.344 C 65.578 274.344,65.504 274.217,65.000 274.000 C 64.560 273.811,63.930 273.656,63.600 273.656 C 63.222 273.656,63.296 273.783,63.800 274.000 M335.200 274.000 C 334.396 274.257,334.357 274.323,335.000 274.332 C 335.440 274.338,336.160 274.189,336.600 274.000 C 337.619 273.562,336.568 273.562,335.200 274.000 M67.400 274.800 C 67.840 274.989,68.470 275.144,68.800 275.144 C 69.178 275.144,69.104 275.017,68.600 274.800 C 68.160 274.611,67.530 274.456,67.200 274.456 C 66.822 274.456,66.896 274.583,67.400 274.800 M331.400 274.800 C 330.896 275.017,330.822 275.144,331.200 275.144 C 331.530 275.144,332.160 274.989,332.600 274.800 C 333.104 274.583,333.178 274.456,332.800 274.456 C 332.470 274.456,331.840 274.611,331.400 274.800 M71.400 275.600 C 71.840 275.789,72.470 275.944,72.800 275.944 C 73.178 275.944,73.104 275.817,72.600 275.600 C 72.160 275.411,71.530 275.256,71.200 275.256 C 70.822 275.256,70.896 275.383,71.400 275.600 M75.800 276.260 C 79.124 276.511,97.717 276.589,96.585 276.347 C 95.933 276.208,90.630 276.105,84.800 276.117 C 78.970 276.130,74.920 276.194,75.800 276.260 M303.415 276.347 C 302.283 276.589,320.876 276.511,324.200 276.260 C 325.080 276.194,321.030 276.130,315.200 276.117 C 309.370 276.105,304.067 276.208,303.415 276.347 M293.600 281.400 C 293.083 281.950,292.774 282.400,292.912 282.400 C 293.050 282.400,293.614 281.950,294.164 281.400 C 294.714 280.850,295.023 280.400,294.852 280.400 C 294.680 280.400,294.117 280.850,293.600 281.400 M111.111 305.500 C 111.050 308.525,111.047 331.025,111.103 355.500 L 111.207 400.000 116.803 400.000 L 122.400 400.000 122.400 350.000 L 122.400 300.000 116.811 300.000 L 111.223 300.000 111.111 305.500 M277.600 350.000 L 277.600 400.000 283.197 400.000 L 288.793 400.000 288.897 355.500 C 288.953 331.025,288.950 308.525,288.889 305.500 L 288.777 300.000 283.189 300.000 L 277.600 300.000 277.600 350.000 " stroke="none" fill="#7454ac" fill-rule="evenodd"></path><path id="path3" d="M194.600 0.274 C 193.060 0.366,191.629 0.612,191.420 0.820 C 191.211 1.029,190.187 1.200,189.144 1.200 C 188.101 1.200,187.136 1.380,187.000 1.600 C 186.864 1.820,185.964 2.000,185.000 2.000 C 184.036 2.000,183.136 2.180,183.000 2.400 C 182.864 2.620,182.234 2.800,181.600 2.800 C 180.966 2.800,180.336 2.980,180.200 3.200 C 180.064 3.420,179.333 3.600,178.576 3.600 C 177.819 3.600,177.200 3.780,177.200 4.000 C 177.200 4.220,176.581 4.400,175.824 4.400 C 175.067 4.400,174.336 4.580,174.200 4.800 C 174.064 5.020,173.524 5.200,173.000 5.200 C 172.476 5.200,171.936 5.380,171.800 5.600 C 171.664 5.820,171.124 6.000,170.600 6.000 C 170.076 6.000,169.536 6.180,169.400 6.400 C 169.264 6.620,168.803 6.800,168.376 6.800 C 167.949 6.800,167.600 6.980,167.600 7.200 C 167.600 7.420,167.161 7.600,166.624 7.600 C 166.087 7.600,165.536 7.780,165.400 8.000 C 165.264 8.220,164.803 8.400,164.376 8.400 C 163.949 8.400,163.600 8.580,163.600 8.800 C 163.600 9.020,163.161 9.200,162.624 9.200 C 162.087 9.200,161.536 9.380,161.400 9.600 C 161.264 9.820,160.803 10.000,160.376 10.000 C 159.949 10.000,159.600 10.180,159.600 10.400 C 159.600 10.620,159.240 10.800,158.800 10.800 C 158.360 10.800,158.000 10.980,158.000 11.200 C 158.000 11.720,156.522 11.720,156.200 11.200 C 156.061 10.975,154.137 10.800,151.800 10.800 C 149.463 10.800,147.539 10.625,147.400 10.400 C 147.078 9.879,141.722 9.879,141.400 10.400 C 141.260 10.627,139.263 10.800,136.776 10.800 C 134.125 10.800,132.400 10.958,132.400 11.200 C 132.400 11.420,131.421 11.600,130.224 11.600 C 129.027 11.600,127.936 11.780,127.800 12.000 C 127.664 12.220,126.843 12.400,125.976 12.400 C 125.109 12.400,124.400 12.580,124.400 12.800 C 124.400 13.020,123.781 13.200,123.024 13.200 C 122.267 13.200,121.536 13.380,121.400 13.600 C 121.264 13.820,120.724 14.000,120.200 14.000 C 119.676 14.000,119.136 14.180,119.000 14.400 C 118.864 14.620,118.324 14.800,117.800 14.800 C 117.276 14.800,116.736 14.980,116.600 15.200 C 116.464 15.420,116.003 15.600,115.576 15.600 C 115.149 15.600,114.800 15.780,114.800 16.000 C 114.800 16.220,114.361 16.400,113.824 16.400 C 113.287 16.400,112.736 16.580,112.600 16.800 C 112.464 17.020,112.003 17.200,111.576 17.200 C 111.149 17.200,110.800 17.380,110.800 17.600 C 110.800 17.820,110.440 18.000,110.000 18.000 C 109.560 18.000,109.200 18.180,109.200 18.400 C 109.200 18.620,108.840 18.800,108.400 18.800 C 107.960 18.800,107.600 18.980,107.600 19.200 C 107.600 19.420,107.322 19.600,106.983 19.600 C 106.644 19.600,105.980 19.960,105.508 20.400 C 105.036 20.840,104.413 21.200,104.125 21.200 C 103.836 21.200,103.600 21.380,103.600 21.600 C 103.600 21.820,103.280 22.000,102.888 22.000 C 102.497 22.000,101.917 22.360,101.600 22.800 C 101.283 23.240,100.743 23.600,100.400 23.600 C 100.057 23.600,99.517 23.960,99.200 24.400 C 98.883 24.840,98.420 25.200,98.171 25.200 C 97.922 25.200,97.197 25.697,96.559 26.304 C 95.922 26.912,94.770 27.853,94.000 28.396 C 92.203 29.663,83.600 38.325,83.600 38.867 C 83.600 39.094,83.060 39.783,82.400 40.400 C 81.740 41.017,81.200 41.674,81.199 41.860 C 81.199 42.047,80.659 42.830,80.000 43.600 C 79.341 44.370,78.801 45.225,78.801 45.500 C 78.800 45.775,78.620 46.000,78.400 46.000 C 78.180 46.000,78.000 46.236,78.000 46.525 C 78.000 46.813,77.640 47.436,77.200 47.908 C 76.760 48.380,76.400 49.044,76.400 49.383 C 76.400 49.722,76.220 50.000,76.000 50.000 C 75.780 50.000,75.600 50.345,75.600 50.767 C 75.600 51.188,75.465 51.593,75.300 51.667 C 74.868 51.859,73.200 55.172,73.200 55.838 C 73.200 56.147,73.020 56.400,72.800 56.400 C 72.580 56.400,72.400 56.760,72.400 57.200 C 72.400 57.640,72.220 58.000,72.000 58.000 C 71.780 58.000,71.600 58.439,71.600 58.976 C 71.600 59.513,71.420 60.064,71.200 60.200 C 70.980 60.336,70.800 60.797,70.800 61.224 C 70.800 61.651,70.620 62.000,70.400 62.000 C 70.180 62.000,70.000 62.540,70.000 63.200 C 70.000 63.860,69.820 64.400,69.600 64.400 C 69.380 64.400,69.200 65.019,69.200 65.776 C 69.200 66.533,69.020 67.264,68.800 67.400 C 68.580 67.536,68.400 68.166,68.400 68.800 C 68.400 69.434,68.220 70.064,68.000 70.200 C 67.780 70.336,67.600 71.236,67.600 72.200 C 67.600 73.164,67.420 74.064,67.200 74.200 C 66.980 74.336,66.800 75.607,66.800 77.024 C 66.800 78.475,66.625 79.600,66.400 79.600 C 65.846 79.600,65.846 228.257,66.400 228.600 C 66.621 228.737,66.800 230.537,66.800 232.624 C 66.800 234.875,66.962 236.400,67.200 236.400 C 67.425 236.400,67.600 237.525,67.600 238.976 C 67.600 240.393,67.780 241.664,68.000 241.800 C 68.220 241.936,68.400 242.757,68.400 243.624 C 68.400 245.685,68.967 245.656,71.666 243.457 C 76.191 239.771,82.538 236.370,87.200 235.134 C 92.080 233.841,94.461 233.547,101.907 233.322 C 111.130 233.042,110.427 233.457,108.576 229.393 C 106.365 224.540,104.024 217.717,102.846 212.700 C 101.634 207.535,101.130 204.530,100.410 198.173 C 100.159 195.954,100.000 180.397,100.000 158.113 L 100.000 121.680 102.100 121.228 C 103.255 120.979,105.190 120.583,106.400 120.347 C 126.192 116.490,142.053 102.694,150.027 82.400 C 152.657 75.705,155.200 64.466,155.200 59.533 C 155.200 56.485,155.731 56.581,157.225 59.900 C 163.728 74.346,174.003 87.110,188.200 98.379 C 191.056 100.645,201.718 108.000,202.149 108.000 C 202.242 108.000,203.462 108.683,204.859 109.517 C 209.147 112.078,218.632 116.572,224.400 118.777 C 226.270 119.491,228.160 120.227,228.600 120.412 C 230.400 121.167,241.018 124.464,244.200 125.256 C 245.080 125.475,246.340 125.805,247.000 125.990 C 247.660 126.175,249.100 126.520,250.200 126.758 C 251.300 126.997,253.460 127.483,255.000 127.840 C 256.540 128.196,258.880 128.664,260.200 128.878 C 261.520 129.093,263.500 129.434,264.600 129.636 C 265.700 129.839,267.860 130.171,269.400 130.374 C 270.940 130.577,273.730 130.948,275.600 131.198 C 280.890 131.906,286.493 132.374,292.600 132.619 C 295.680 132.743,298.605 132.927,299.100 133.029 L 300.000 133.215 300.000 163.881 C 300.000 196.251,299.861 199.333,297.958 209.000 C 296.669 215.554,294.158 223.392,291.424 229.393 C 289.573 233.457,288.870 233.042,298.093 233.322 C 305.536 233.547,307.872 233.835,312.800 235.132 C 317.481 236.364,323.650 239.645,328.000 243.215 C 330.818 245.528,331.600 245.622,331.600 243.651 C 331.600 242.769,331.780 241.936,332.000 241.800 C 332.220 241.664,332.400 240.393,332.400 238.976 C 332.400 237.525,332.575 236.400,332.800 236.400 C 333.038 236.400,333.200 234.875,333.200 232.624 C 333.200 230.537,333.379 228.737,333.600 228.600 C 333.864 228.437,334.000 208.329,334.000 169.576 C 334.000 130.659,333.865 110.800,333.600 110.800 C 333.365 110.800,333.200 109.408,333.200 107.424 C 333.200 105.567,333.020 103.936,332.800 103.800 C 332.580 103.664,332.400 102.584,332.400 101.400 C 332.400 100.216,332.220 99.136,332.000 99.000 C 331.780 98.864,331.600 97.964,331.600 97.000 C 331.600 96.036,331.420 95.136,331.200 95.000 C 330.980 94.864,330.800 94.043,330.800 93.176 C 330.800 92.309,330.620 91.600,330.400 91.600 C 330.180 91.600,330.000 90.981,330.000 90.224 C 330.000 89.467,329.820 88.736,329.600 88.600 C 329.380 88.464,329.200 87.823,329.200 87.176 C 329.200 86.529,329.020 86.000,328.800 86.000 C 328.580 86.000,328.400 85.460,328.400 84.800 C 328.400 84.140,328.220 83.600,328.000 83.600 C 327.780 83.600,327.600 83.060,327.600 82.400 C 327.600 81.740,327.420 81.200,327.200 81.200 C 326.980 81.200,326.800 80.660,326.800 80.000 C 326.800 79.340,326.620 78.800,326.400 78.800 C 326.180 78.800,326.000 78.451,326.000 78.024 C 326.000 77.597,325.820 77.136,325.600 77.000 C 325.380 76.864,325.200 76.313,325.200 75.776 C 325.200 75.239,325.020 74.800,324.800 74.800 C 324.580 74.800,324.400 74.440,324.400 74.000 C 324.400 73.560,324.220 73.200,324.000 73.200 C 323.780 73.200,323.600 72.761,323.600 72.224 C 323.600 71.687,323.420 71.136,323.200 71.000 C 322.980 70.864,322.800 70.403,322.800 69.976 C 322.800 69.549,322.620 69.200,322.400 69.200 C 322.180 69.200,322.000 68.840,322.000 68.400 C 322.000 67.960,321.820 67.600,321.600 67.600 C 321.380 67.600,321.200 67.240,321.200 66.800 C 321.200 66.360,321.020 66.000,320.800 66.000 C 320.580 66.000,320.400 65.655,320.400 65.233 C 320.400 64.812,320.265 64.407,320.100 64.333 C 319.724 64.166,318.425 62.036,318.129 61.100 C 318.007 60.715,317.748 60.400,317.553 60.400 C 317.359 60.400,317.200 60.040,317.200 59.600 C 317.200 59.160,317.020 58.800,316.800 58.800 C 316.580 58.800,316.400 58.564,316.400 58.275 C 316.400 57.987,316.040 57.364,315.600 56.892 C 315.160 56.420,314.800 55.796,314.800 55.505 C 314.800 55.214,314.440 54.717,314.000 54.400 C 313.560 54.083,313.200 53.543,313.200 53.200 C 313.200 52.857,312.840 52.317,312.400 52.000 C 311.960 51.683,311.600 51.220,311.600 50.971 C 311.600 50.722,311.060 49.954,310.400 49.263 C 309.740 48.572,309.200 47.847,309.200 47.652 C 309.200 47.456,308.480 46.555,307.600 45.648 C 306.720 44.741,306.000 43.821,306.000 43.604 C 306.000 43.066,291.752 28.816,290.000 27.601 C 289.230 27.068,288.123 26.129,287.540 25.515 C 286.956 24.902,286.308 24.400,286.099 24.400 C 285.890 24.400,285.154 23.860,284.463 23.200 C 283.772 22.540,283.002 22.000,282.751 22.000 C 282.499 22.000,282.003 21.684,281.647 21.297 C 281.291 20.911,280.505 20.340,279.900 20.030 C 279.295 19.719,278.800 19.315,278.800 19.132 C 278.800 18.950,278.480 18.800,278.088 18.800 C 277.697 18.800,277.117 18.440,276.800 18.000 C 276.483 17.560,275.918 17.200,275.545 17.200 C 275.172 17.200,274.807 17.065,274.733 16.900 C 274.566 16.524,272.436 15.225,271.500 14.929 C 271.115 14.807,270.800 14.548,270.800 14.353 C 270.800 14.159,270.440 14.000,270.000 14.000 C 269.560 14.000,269.200 13.820,269.200 13.600 C 269.200 13.380,268.840 13.200,268.400 13.200 C 267.960 13.200,267.600 13.020,267.600 12.800 C 267.600 12.580,267.240 12.400,266.800 12.400 C 266.360 12.400,266.000 12.220,266.000 12.000 C 266.000 11.780,265.640 11.600,265.200 11.600 C 264.760 11.600,264.400 11.420,264.400 11.200 C 264.400 10.980,264.040 10.800,263.600 10.800 C 263.160 10.800,262.800 10.620,262.800 10.400 C 262.800 10.180,262.440 10.000,262.000 10.000 C 261.560 10.000,261.200 9.820,261.200 9.600 C 261.200 9.380,260.851 9.200,260.424 9.200 C 259.997 9.200,259.536 9.020,259.400 8.800 C 259.264 8.580,258.713 8.400,258.176 8.400 C 257.639 8.400,257.200 8.220,257.200 8.000 C 257.200 7.780,256.761 7.600,256.224 7.600 C 255.687 7.600,255.136 7.420,255.000 7.200 C 254.864 6.980,254.403 6.800,253.976 6.800 C 253.549 6.800,253.200 6.620,253.200 6.400 C 253.200 6.180,252.660 6.000,252.000 6.000 C 251.340 6.000,250.800 5.820,250.800 5.600 C 250.800 5.380,250.260 5.200,249.600 5.200 C 248.940 5.200,248.400 5.020,248.400 4.800 C 248.400 4.580,247.781 4.400,247.024 4.400 C 246.267 4.400,245.536 4.220,245.400 4.000 C 245.264 3.780,244.623 3.600,243.976 3.600 C 243.329 3.600,242.800 3.420,242.800 3.200 C 242.800 2.980,242.091 2.800,241.224 2.800 C 240.357 2.800,239.536 2.620,239.400 2.400 C 239.264 2.180,238.353 2.000,237.376 2.000 C 236.399 2.000,235.600 1.820,235.600 1.600 C 235.600 1.380,234.736 1.200,233.680 1.200 C 232.624 1.200,231.543 0.983,231.278 0.718 C 230.797 0.237,201.242 -0.121,194.600 0.274 M153.400 144.775 C 150.151 145.331,147.309 147.516,145.558 150.802 C 144.271 153.218,144.090 168.268,145.317 170.909 C 149.489 179.888,163.196 179.601,165.930 170.477 C 166.822 167.500,166.555 153.120,165.568 151.022 C 163.390 146.387,158.535 143.895,153.400 144.775 M242.138 144.772 C 239.105 145.268,235.917 147.873,234.399 151.096 C 233.077 153.902,233.198 168.840,234.564 171.513 C 238.764 179.730,250.333 179.608,254.452 171.304 C 255.914 168.358,255.906 153.550,254.442 150.802 C 251.971 146.165,247.381 143.915,242.138 144.772 M53.200 271.200 C 53.988 271.709,54.915 271.709,54.600 271.200 C 54.464 270.980,53.958 270.803,53.476 270.806 C 52.764 270.811,52.712 270.885,53.200 271.200 M345.400 271.200 C 345.085 271.709,346.012 271.709,346.800 271.200 C 347.288 270.885,347.236 270.811,346.524 270.806 C 346.042 270.803,345.536 270.980,345.400 271.200 M41.053 273.827 C 40.254 274.626,39.600 275.478,39.600 275.719 C 39.600 275.960,40.349 275.401,41.264 274.477 C 42.180 273.552,42.834 272.701,42.718 272.584 C 42.602 272.468,41.853 273.027,41.053 273.827 M357.724 273.303 C 358.342 273.798,359.193 274.652,359.615 275.201 C 360.037 275.751,360.386 275.996,360.391 275.746 C 360.402 275.189,357.583 272.399,357.012 272.402 C 356.785 272.403,357.106 272.809,357.724 273.303 " stroke="none" fill="#63342c" fill-rule="evenodd"></path></g></svg>